<?xml version="1.0" encoding="UTF-8"?>
<svg width="104px" height="104px" viewBox="0 0 104 104" version="1.1" xmlns="http://www.w3.org/2000/svg" xmlns:xlink="http://www.w3.org/1999/xlink">
    <!-- Generator: Sketch 41.1 (35376) - http://www.bohemiancoding.com/sketch -->
    <title>Logo</title>
    <desc>Created with Sketch.</desc>
    <defs></defs>
    <g id="Page-1" stroke="none" stroke-width="1" fill="none" fill-rule="evenodd">
        <g id="Welcome" transform="translate(-136.000000, -128.000000)" fill="#FFFFFF">
            <g id="Logo" transform="translate(136.000000, 128.000000)">
                <g id="logo" fill-opacity="0.1">
                    <circle id="Oval" cx="51.6087365" cy="51.6087365" r="51.6087365"></circle>
                </g>
                <g id="react" transform="translate(21.000000, 25.000000)" fill-opacity="0.6">
                    <g id="Group-3" transform="translate(0.000000, 0.100552)">
                        <path d="M50.0907731,33.1823398 C49.0400168,33.6377003 47.8916134,34.0438006 46.7065714,34.4251862 C46.0102689,32.0132991 45.0939664,29.5030608 43.9576639,26.931205 C45.0816975,24.3717066 45.9857311,21.8736564 46.6699328,19.4741266 C47.8795126,19.8556815 49.027916,20.2739699 50.103042,20.7293304 C54.427916,22.587506 57.2257311,25.0239386 57.2257311,26.9557505 C57.2134622,28.8877317 54.4156471,31.3365216 50.0907731,33.1823398 Z M45.3870756,41.3900013 C45.9613613,46.0907097 45.2527899,49.745274 43.6033782,50.7174433 C43.2368235,50.9390295 42.7603529,51.0373806 42.1985042,51.0373806 C39.6694286,51.0373806 35.9186723,49.0070483 31.9359832,45.3030545 C33.6464034,43.4941392 35.3568235,41.4392614 36.9816975,39.1627975 C39.7427059,38.8674056 42.3573277,38.4120451 44.7517815,37.8090734 C45.0327899,39.0519197 45.2527899,40.2456752 45.3870756,41.3900013 L45.3870756,41.3900013 Z M16.4077479,50.7667034 C14.7462353,49.8068915 14.025395,46.152158 14.5874118,41.4516188 C14.7218655,40.2947661 14.9416975,39.0766345 15.210437,37.8337881 C17.6050588,38.4244025 20.2195126,38.879763 22.9684202,39.1749856 C24.6178319,41.4516188 26.3282521,43.5188539 28.0507731,45.3277693 C24.068084,49.0563085 20.3295966,51.0989981 17.7882521,51.0989981 C17.2385042,51.0866408 16.7743025,50.9759323 16.4077479,50.7667034 Z M9.83497479,33.1823398 C5.50993277,31.3241643 2.71228571,28.8877317 2.71228571,26.9557505 C2.71228571,25.0239386 5.50993277,22.5751486 9.83497479,20.7293304 C10.885563,20.2739699 12.0339664,19.8678696 13.2190084,19.486484 C13.915479,21.8983712 14.8317815,24.4086094 15.967916,26.9804652 C14.8440504,29.5399636 13.9398487,32.0380138 13.2556471,34.4375436 C12.0462353,34.0559887 10.8978319,33.6377003 9.83497479,33.1823398 Z M20.8914454,17.776089 C20.2927899,18.7235436 19.6943025,19.6957129 19.1322857,20.6924276 C18.5702689,21.676785 18.0448908,22.6613116 17.5440504,23.645669 C16.8842185,21.9967223 16.3222017,20.3479448 15.858,18.748089 C17.4585042,18.3667034 19.1443866,18.0344088 20.8914454,17.776089 Z M29.9322857,10.5282395 C31.0684202,11.7094683 32.2047227,13.0261204 33.3287563,14.4658382 C32.2290924,14.4167473 31.1052269,14.3798445 29.9689244,14.3798445 C28.820521,14.3798445 27.6843866,14.40439 26.5726218,14.4658382 C27.6721176,13.0261204 28.8082521,11.7094683 29.9322857,10.5282395 L29.9322857,10.5282395 Z M20.9037143,36.1355812 C19.1689244,35.8772614 17.4951429,35.5573241 15.8946387,35.1635812 C16.3467395,33.5760828 16.9087563,31.9394934 17.5440504,30.3029041 C18.0448908,31.2872614 18.5702689,32.2717881 19.1443866,33.2561455 C19.7186723,34.2406721 20.3050588,35.200484 20.9037143,36.1355812 L20.9037143,36.1355812 Z M29.9932941,43.3834307 C28.8571597,42.2022019 27.7210252,40.8855498 26.5969916,39.445832 C27.6964874,39.4949229 28.820521,39.5318257 29.9566555,39.5318257 C31.1052269,39.5318257 32.2413613,39.5072803 33.3531261,39.445832 C32.2536303,40.8855498 31.1173277,42.2022019 29.9932941,43.3834307 L29.9932941,43.3834307 Z M42.3816975,30.2536439 C43.0413613,31.9025906 43.6033782,33.5515373 44.0675798,35.1512238 C42.4672437,35.5449668 40.7811933,35.8772614 39.0341345,36.1355812 C39.6327899,35.1881266 40.2314454,34.2159574 40.7934622,33.2192426 C41.355479,32.2348853 41.8806891,31.2381705 42.3816975,30.2536439 Z M38.435479,31.8533304 C37.4825378,33.5146345 36.5052269,35.0896063 35.4911092,36.5540389 C33.6707731,36.7140075 31.8258992,36.8001705 29.9689244,36.8001705 C28.1240504,36.8001705 26.2793445,36.7140075 24.4711092,36.5663962 C23.4571597,35.1019636 22.4675798,33.5391799 21.5146387,31.8902332 C20.5860672,30.2783586 19.743042,28.6416 18.9734622,26.9928226 C19.7309412,25.3438759 20.5860672,23.6949292 21.5023697,22.0828853 C22.4553109,20.4217505 23.4326218,18.8466094 24.4467395,17.3823461 C26.2670756,17.2223774 28.1119496,17.1362144 29.9689244,17.1362144 C31.8137983,17.1362144 33.6585042,17.2223774 35.4667395,17.3699887 C36.4806891,18.834252 37.4702689,20.3970357 38.4232101,22.0459824 C39.3517815,23.6580263 40.1948067,25.2946157 40.9645546,26.9435624 C40.1948067,28.5925091 39.3517815,30.2412865 38.435479,31.8533304 Z M44.0309412,18.748089 C43.5790084,20.3355875 43.0169916,21.9721768 42.3816975,23.6087661 C41.8806891,22.6244088 41.355479,21.6398821 40.7811933,20.6555248 C40.2191765,19.6709981 39.620521,18.7111862 39.0218655,17.776089 C40.7568235,18.0344088 42.430605,18.3543461 44.0309412,18.748089 Z M59.9378319,26.9559197 C59.9378319,22.9565342 54.965395,19.1665467 47.3418655,16.8162771 C49.1011933,8.99000125 48.3193445,2.76358119 44.8739664,0.769982445 C44.0798487,0.302433856 43.1514454,0.0810169279 42.1373277,0.0810169279 L42.1373277,2.82502947 C42.6993445,2.82502947 43.1514454,2.93573793 43.5301008,3.14496677 C45.1916134,4.10477868 45.9124538,7.75951223 45.350437,12.4600514 C45.2161513,13.6169041 44.9961513,14.8350357 44.7274118,16.0778821 C42.3327899,15.4872677 39.7183361,15.0319072 36.9694286,14.7366846 C35.3201849,12.4600514 33.6097647,10.3928163 31.8870756,8.58390094 C35.8699328,4.85536176 39.6084202,2.8126721 42.1495966,2.8126721 L42.1495966,0.0686595611 C38.7897647,0.0686595611 34.3916134,2.48054671 29.9445546,6.66427712 C25.4974958,2.50509216 21.0991765,0.117919749 17.7395126,0.117919749 L17.7395126,2.86193229 C20.2684202,2.86193229 24.0191765,4.89226458 28.0020336,8.59625831 C26.2916134,10.4051737 24.5811933,12.4600514 22.9563193,14.7366846 C20.1951429,15.0319072 17.5806891,15.4872677 15.1860672,16.0902395 C14.9050588,14.8597505 14.6973277,13.665995 14.5507731,12.521669 C13.9764874,7.8209605 14.6852269,4.16639624 16.3344706,3.19422696 C16.7010252,2.97264075 17.1774958,2.87428966 17.7395126,2.87428966 L17.7395126,0.130107837 C16.7132941,0.130107837 15.7847227,0.351694044 14.9783361,0.819242633 C11.545395,2.8126721 10.7756471,9.02690408 12.5470756,16.8284652 C4.94791597,19.1910922 1.68067227e-05,22.9688915 1.68067227e-05,26.9559197 C1.68067227e-05,30.9551361 4.97245378,34.7451235 12.5959832,37.0953931 C10.8366555,44.921669 11.6186723,51.148089 15.0638824,53.1416878 C15.858,53.6092364 16.7865714,53.8306533 17.8127899,53.8306533 C21.1724538,53.8306533 25.5707731,51.4189354 30.0178319,47.2350357 C34.4648908,51.3942207 38.863042,53.7815624 42.2228739,53.7815624 C43.2490924,53.7815624 44.1776639,53.5599762 44.9840504,53.0924276 C48.4169916,51.0989981 49.1867395,44.8847661 47.4151429,37.083205 C54.9899328,34.7327661 59.9378319,30.9427787 59.9378319,26.9557505 L59.9378319,26.9559197 Z" id="Fill-1"></path>
                    </g>
                    <path d="M29.9567227,21.4328539 C33.0402521,21.4328539 35.540084,23.9505404 35.540084,27.0564715 C35.540084,30.1622332 33.0402521,32.6799197 29.9567227,32.6799197 C26.8731933,32.6799197 24.3733613,30.1622332 24.3733613,27.0564715 C24.3733613,23.9505404 26.8731933,21.4328539 29.9567227,21.4328539" id="Fill-4"></path>
                </g>
            </g>
        </g>
    </g>
</svg>